<svg xmlns="http://www.w3.org/2000/svg" viewBox="0 0 739.23 153"><defs><style>.cls-1{isolation:isolate;}.cls-2{fill:#46b646;}.cls-3{fill:#f15a24;}.cls-4{fill:#dd2663;}.cls-5{fill:#199ed6;}.cls-6{fill:#b450cc;}</style></defs><g id="Layer_2" data-name="Layer 2"><g id="Layer_1-2" data-name="Layer 1"><g id="Layer_2-2" data-name="Layer 2"><g id="Layer_1-2-2" data-name="Layer 1-2"><g class="cls-1"><g class="cls-1"><path d="M160.13,28.08h-2.32V17.13h-4.14V15h10.61v2.13h-4.15Z"/><path d="M167.86,22.57v5.51h-2.28V15h2.28v5.44h6.28V15h2.28V28.08h-2.28V22.57Z"/><path d="M191.25,24.14a6.7,6.7,0,0,1-1.42,2.16,7.2,7.2,0,0,1-7.69,1.47A6.37,6.37,0,0,1,180,26.32a6.46,6.46,0,0,1-1.4-2.14,6.83,6.83,0,0,1-.51-2.62,6.75,6.75,0,0,1,.51-2.61A6.34,6.34,0,0,1,180,16.79a6.78,6.78,0,0,1,2.16-1.47,7,7,0,0,1,2.77-.54,7,7,0,0,1,2.76.53,6.49,6.49,0,0,1,3.55,3.6,7,7,0,0,1,0,5.23ZM189,19.76a4.55,4.55,0,0,0-.92-1.49,4.29,4.29,0,0,0-3.2-1.38,4.23,4.23,0,0,0-3.18,1.36,4.54,4.54,0,0,0-.9,1.47,5.1,5.1,0,0,0,0,3.61,4.65,4.65,0,0,0,.91,1.48,4.6,4.6,0,0,0,1.41,1,4.3,4.3,0,0,0,1.8.37,4.36,4.36,0,0,0,1.78-.36,4.1,4.1,0,0,0,1.39-1,4.54,4.54,0,0,0,.91-1.48,4.88,4.88,0,0,0,.33-1.8A5,5,0,0,0,189,19.76Z"/><path d="M201.81,28.08l-3.23-4.56H195.7v4.56h-2.28V15h5.83a6.7,6.7,0,0,1,2,.29,4.32,4.32,0,0,1,1.53.83,3.58,3.58,0,0,1,1,1.3,4.75,4.75,0,0,1,.1,3.2,4,4,0,0,1-.64,1.14,4,4,0,0,1-1,.84,4.73,4.73,0,0,1-1.26.53l3.53,4.95Zm-.75-10.45a3.22,3.22,0,0,0-2-.55H195.7v4.41h3.37a3,3,0,0,0,2-.6,2,2,0,0,0,.73-1.62A2,2,0,0,0,201.06,17.63Z"/><path d="M214.92,15h2.28V28.08h-1.92l-7.2-9.3v9.3H205.8V15h2.13l7,9Z"/><path d="M221.49,19.09a1.39,1.39,0,0,0,.48.53,3.94,3.94,0,0,0,1,.45c.4.13.92.28,1.54.43a12.78,12.78,0,0,1,1.83.58,4.42,4.42,0,0,1,1.32.77,3,3,0,0,1,.79,1.07,3.46,3.46,0,0,1,.28,1.42,3.87,3.87,0,0,1-.35,1.67,3.57,3.57,0,0,1-1,1.23,4.1,4.1,0,0,1-1.47.76,6.25,6.25,0,0,1-1.89.27,8,8,0,0,1-2.89-.52,7.84,7.84,0,0,1-2.56-1.58L220,24.53a8,8,0,0,0,1.93,1.26,5.3,5.3,0,0,0,2.2.44,2.85,2.85,0,0,0,1.69-.45,1.41,1.41,0,0,0,.63-1.21,1.47,1.47,0,0,0-.13-.64,1.32,1.32,0,0,0-.45-.51,3.5,3.5,0,0,0-.89-.44,14.64,14.64,0,0,0-1.49-.43,15.75,15.75,0,0,1-1.87-.54,4.63,4.63,0,0,1-1.36-.75,3.07,3.07,0,0,1-.85-1.08,3.79,3.79,0,0,1-.29-1.55,3.5,3.5,0,0,1,.34-1.56,3.61,3.61,0,0,1,.91-1.21,4.16,4.16,0,0,1,1.41-.77,5.65,5.65,0,0,1,1.79-.27,7.53,7.53,0,0,1,2.59.42,7.83,7.83,0,0,1,2.15,1.22L227,18.2a8,8,0,0,0-1.77-1,4.86,4.86,0,0,0-1.78-.35,2.47,2.47,0,0,0-1.57.46,1.41,1.41,0,0,0-.56,1.11A1.67,1.67,0,0,0,221.49,19.09Z"/><path d="M239.26,15.9a3,3,0,0,1,1.16,2.45,3.49,3.49,0,0,1-.16,1.07,3.08,3.08,0,0,1-.41.81,2.63,2.63,0,0,1-.59.61,4.14,4.14,0,0,1-.7.45,6.38,6.38,0,0,1,1.05.48,3.28,3.28,0,0,1,.82.64,2.73,2.73,0,0,1,.53.89,3.53,3.53,0,0,1,.18,1.18A3.34,3.34,0,0,1,240.8,26a3.21,3.21,0,0,1-1,1.13,4.68,4.68,0,0,1-1.53.69,8.09,8.09,0,0,1-2,.23h-6V15h5.86A5,5,0,0,1,239.26,15.9Zm-1.79,4.19a1.53,1.53,0,0,0,.67-1.36,1.48,1.48,0,0,0-.59-1.25,2.82,2.82,0,0,0-1.7-.44h-3.3v3.49h3.13A3.19,3.19,0,0,0,237.47,20.09Zm.73,5.5a1.56,1.56,0,0,0,.67-1.36,1.51,1.51,0,0,0-.67-1.31,3.53,3.53,0,0,0-2-.46h-3.63V26h3.8A3.31,3.31,0,0,0,238.2,25.59Z"/><path d="M253.62,22.42a7.44,7.44,0,0,1-.4,2.56,5,5,0,0,1-1.13,1.84,4.5,4.5,0,0,1-1.76,1.1,7.12,7.12,0,0,1-2.33.37,6.93,6.93,0,0,1-2.3-.37A4.64,4.64,0,0,1,244,26.83a4.87,4.87,0,0,1-1.12-1.8,7.09,7.09,0,0,1-.4-2.5V15h2.28v7.44a3.93,3.93,0,0,0,.89,2.78,3.13,3.13,0,0,0,2.44,1,3.21,3.21,0,0,0,2.42-.91,3.78,3.78,0,0,0,.88-2.73V15h2.28Z"/></g><g class="cls-1"><path d="M264.78,28.08l-3.22-4.56h-2.89v4.56h-2.28V15h5.83a6.77,6.77,0,0,1,2,.29,4.5,4.5,0,0,1,1.53.83,3.56,3.56,0,0,1,1,1.3,4.41,4.41,0,0,1,.34,1.73,4.2,4.2,0,0,1-.24,1.47,3.74,3.74,0,0,1-.64,1.14,4,4,0,0,1-1,.84,4.73,4.73,0,0,1-1.26.53l3.53,4.95ZM264,17.63a3.2,3.2,0,0,0-2-.55h-3.35v4.41H262a3,3,0,0,0,2-.6,2,2,0,0,0,.73-1.62A2,2,0,0,0,264,17.63Z"/></g><g class="cls-1"><path d="M274.57,28.08h-2.32V22.92L267.06,15h2.7l3.67,5.79L277.12,15h2.64l-5.19,7.87Z"/></g><g class="cls-1"><path d="M294.69,27.7a8,8,0,0,1-3.19.6,7.37,7.37,0,0,1-2.79-.5,6.26,6.26,0,0,1-3.58-3.53,7.15,7.15,0,0,1-.5-2.69v0a6.72,6.72,0,0,1,.51-2.62,6.68,6.68,0,0,1,3.6-3.61,7,7,0,0,1,2.75-.53,9.71,9.71,0,0,1,1.59.12,7.5,7.5,0,0,1,1.34.35,5.91,5.91,0,0,1,1.16.56,8.37,8.37,0,0,1,1,.76l-1.81,2.19a7.29,7.29,0,0,0-.75-.56,4.75,4.75,0,0,0-.77-.41,5,5,0,0,0-1.9-.36,3.29,3.29,0,0,0-1.46.33,3.88,3.88,0,0,0-1.2.88,4.06,4.06,0,0,0-.8,1.29,4.15,4.15,0,0,0-.29,1.58v0a4.49,4.49,0,0,0,.29,1.66,3.91,3.91,0,0,0,.82,1.32,3.8,3.8,0,0,0,1.25.87,4.11,4.11,0,0,0,1.6.31,4.59,4.59,0,0,0,2.71-.79V23h-2.9V20.55h5.68v5.68A9.74,9.74,0,0,1,294.69,27.7Z"/><path d="M311.72,24.17a6.86,6.86,0,0,1-1.45,2.14,6.61,6.61,0,0,1-2.21,1.46,7.08,7.08,0,0,1-2.79.53,7,7,0,0,1-2.78-.53,6.77,6.77,0,0,1-2.2-1.44,6.57,6.57,0,0,1-1.44-2.13,6.72,6.72,0,0,1-.51-2.62v0a6.73,6.73,0,0,1,.52-2.62,6.91,6.91,0,0,1,1.45-2.15,6.76,6.76,0,0,1,2.21-1.46,7.26,7.26,0,0,1,2.79-.53,7,7,0,0,1,5,2,6.57,6.57,0,0,1,1.44,2.13,6.76,6.76,0,0,1,.51,2.62v0A6.78,6.78,0,0,1,311.72,24.17Zm-2.49-2.63a4.44,4.44,0,0,0-.29-1.59,3.83,3.83,0,0,0-.82-1.3,3.89,3.89,0,0,0-1.26-.89,3.84,3.84,0,0,0-1.59-.33,4,4,0,0,0-1.6.32,3.51,3.51,0,0,0-1.23.88,4,4,0,0,0-.8,1.3,4.1,4.1,0,0,0-.29,1.57v0a4.23,4.23,0,0,0,.29,1.59,3.87,3.87,0,0,0,.82,1.31,4,4,0,0,0,1.25.89,3.94,3.94,0,0,0,1.6.32,3.83,3.83,0,0,0,1.59-.32,3.66,3.66,0,0,0,1.24-.87,4.22,4.22,0,0,0,.8-1.3,4.35,4.35,0,0,0,.29-1.58Z"/><path d="M320.57,28.17H318L312.74,15h3.18l3.42,9.21L322.76,15h3.1Z"/><path d="M326.94,28.08V15h9.84v2.56h-7v2.66h6.16v2.56h-6.16v2.74h7.1v2.56Z"/><path d="M346.46,28.08l-2.8-4.18H341.4v4.18h-2.88V15h6a5.3,5.3,0,0,1,3.63,1.14,4,4,0,0,1,1.3,3.18v0a4.1,4.1,0,0,1-.77,2.58,4.51,4.51,0,0,1-2,1.47l3.19,4.67Zm.06-8.61a1.67,1.67,0,0,0-.6-1.4,2.64,2.64,0,0,0-1.66-.47H341.4v3.76h2.91a2.39,2.39,0,0,0,1.64-.51,1.7,1.7,0,0,0,.57-1.34Z"/><path d="M360.27,28.08l-6.34-8.31v8.31h-2.84V15h2.66l6.12,8.05V15h2.84V28.08Z"/><path d="M375.15,28.08V19.54l-3.68,5.59h-.07l-3.64-5.53v8.48h-2.84V15H368l3.43,5.53L374.89,15H378V28.08Z"/><path d="M380.2,28.08V15H390v2.56h-7v2.66h6.16v2.56H383v2.74h7.09v2.56Z"/><path d="M401,28.08l-6.33-8.31v8.31h-2.84V15h2.65l6.13,8.05V15h2.84V28.08Z"/><path d="M411.52,17.66V28.08h-2.87V17.66h-4V15H415.5v2.66Z"/></g></g><path class="cls-2" d="M67.84,0c2.22,3.37,4.64,6.63,6.64,10.13a59.76,59.76,0,0,1,7.11,18.59,51,51,0,0,1,.63,14.54,51.86,51.86,0,0,1-6,19.72c-2.51,4.65-5.31,9.14-8,13.72,2,3.12,4.32,6.43,6.31,9.94a60.5,60.5,0,0,1,7.07,18.45,50.62,50.62,0,0,1,.65,14.69,58.28,58.28,0,0,1-6.1,20A83.16,83.16,0,0,1,67.84,153h-.6A71.41,71.41,0,0,1,55,130.23a53.77,53.77,0,0,1-2.4-14.12c-.36-10.41,2.68-19.91,7.57-28.89,2-3.75,4.58-7.24,7-11A70.38,70.38,0,0,1,58,61.28,50.39,50.39,0,0,1,53,44a68.12,68.12,0,0,1-.26-10,49.38,49.38,0,0,1,3.1-13.78A73.53,73.53,0,0,1,65.13,2.8c.68-.95,1.4-1.87,2.11-2.8Z"/><path class="cls-3" d="M130.89,119.53a9.24,9.24,0,0,1-1.57.29c-2.88,0-5.78.17-8.66,0-7.38-.5-14.63-1.74-21.45-4.77a80.23,80.23,0,0,1-7.12-3.72,2.66,2.66,0,0,1-1.19-1.79,55.79,55.79,0,0,0-4.64-18.35A150.8,150.8,0,0,0,79,77.48a1.54,1.54,0,0,1,0-2A74.56,74.56,0,0,0,89.47,52a76.11,76.11,0,0,0,1.35-8.22,3.26,3.26,0,0,1,1.84-2.56,56.18,56.18,0,0,1,17-6.54,82.8,82.8,0,0,1,20.3-1.5,3.94,3.94,0,0,1,1,.29v.6a1.65,1.65,0,0,0-.29.45,70.32,70.32,0,0,1-8.75,18.24,56,56,0,0,1-10.78,12.06A51.33,51.33,0,0,1,87,75.61l-4.44.8c2.5.64,5,1,7.44,1.6a49.15,49.15,0,0,1,21.93,10.78,56.2,56.2,0,0,1,13.59,17.62c2,4.07,3.63,8.34,5.42,12.53Z"/><path class="cls-4" d="M0,75.31c1.57-3.17,4.17-4.25,6.86-2.86a4.62,4.62,0,0,1,2.4,4.64A4.69,4.69,0,0,1,5.94,81,4.9,4.9,0,0,1,0,77.7Z"/><path class="cls-3" d="M52.91,76.51c-2.83-.55-5.3-1-7.74-1.51a49.45,49.45,0,0,1-20-9.15A56.39,56.39,0,0,1,10.87,49,78.5,78.5,0,0,1,4.43,34.66c-.4-1.25,0-1.5,1.07-1.5,3,0,6-.17,9,.05,7.29.52,14.5,1.73,21.27,4.79a70.43,70.43,0,0,1,7.5,3.94c.56.33.85,1.46.92,2.25a52.08,52.08,0,0,0,4.08,16.38c2.22,5.08,5,9.93,7.58,14.84a1.8,1.8,0,0,1,.06,2.19,76.93,76.93,0,0,0-10.36,23.26c-.76,3.06-1.08,6.23-1.64,9.35a1.54,1.54,0,0,1-.51,1,55.12,55.12,0,0,1-18.23,7.22,83.49,83.49,0,0,1-19.26,1.49c-1.85,0-2-.16-1.41-1.82A73.81,73.81,0,0,1,16.78,95.39,49.59,49.59,0,0,1,45.07,78C47.53,77.44,50,77.05,52.91,76.51Z"/><path class="cls-5" d="M31.84,8.51a75.85,75.85,0,0,1,15.44,9.1C46.12,22.51,45,27.31,43.89,32L30.51,26.8A73.37,73.37,0,0,1,31.84,8.51Z"/><path class="cls-6" d="M31.84,144.5c-1.42-6.25-1.46-12.38-1.33-18.27L43.9,121q1.6,6.85,3.37,14.36A75.22,75.22,0,0,1,31.84,144.5Z"/><path class="cls-5" d="M103.66,8.58c.41,6.25.81,12.33,1.19,18L91.21,31.93C90.1,27.61,89,23.2,87.87,18.77a1.83,1.83,0,0,1,.37-1.58,83.93,83.93,0,0,1,14.35-8.43A6.46,6.46,0,0,1,103.66,8.58Z"/><path class="cls-6" d="M91.21,121.07l13.63,5.35c-.37,5.61-.77,11.73-1.19,18.08-.72-.24-1-.31-1.32-.44a82.48,82.48,0,0,1-14-8.13,1.34,1.34,0,0,1-.52-1.74C89,129.8,90.11,125.37,91.21,121.07Z"/><path class="cls-4" d="M126,72a4.37,4.37,0,0,1,4.6,4.14c0,.11,0,.21,0,.31a4.63,4.63,0,0,1-9.25.25C121.45,74.35,123,71.73,126,72Z"/><g class="cls-1"><g class="cls-1"><path d="M189.88,60.12a13.1,13.1,0,0,1-3.63,4.62,15.74,15.74,0,0,1-5.4,2.79,22.9,22.9,0,0,1-6.63.93h-7v12.6H158v-42h17.16a20.18,20.18,0,0,1,6.75,1,14.32,14.32,0,0,1,5,3,13,13,0,0,1,3.18,4.59,15.25,15.25,0,0,1,1.11,5.91v.12A14.72,14.72,0,0,1,189.88,60.12Zm-8-6.36a5.73,5.73,0,0,0-2-4.74,8.51,8.51,0,0,0-5.49-1.62H167.2V60.24h7.32a7.51,7.51,0,0,0,5.4-1.83,6,6,0,0,0,1.92-4.53Z"/><path d="M216,81.06v-4.6a19.77,19.77,0,0,1-1.71,2,12.45,12.45,0,0,1-2.07,1.66,10.09,10.09,0,0,1-5.64,1.57q-5.22,0-8.07-3.18t-2.85-8.76V48.9h9.12V66.8a7.19,7.19,0,0,0,1.44,4.87,5.13,5.13,0,0,0,4.08,1.65,5.41,5.41,0,0,0,4.17-1.65A6.9,6.9,0,0,0,216,66.8V48.9h9.12V81.06Z"/><path d="M264.73,72.15a16.27,16.27,0,0,1-3.24,5.22,13.22,13.22,0,0,1-4.65,3.21,14.44,14.44,0,0,1-5.52,1.08,11.55,11.55,0,0,1-6-1.43,16,16,0,0,1-4-3.33v4.16h-9.12V37.26h9.12V53.48a14.35,14.35,0,0,1,4-3.72,11.24,11.24,0,0,1,6-1.46,14.29,14.29,0,0,1,5.46,1.08,13.51,13.51,0,0,1,4.68,3.21,16,16,0,0,1,3.27,5.22A19.12,19.12,0,0,1,266,64.92V65A19.12,19.12,0,0,1,264.73,72.15Zm-7.89-7.23a10.17,10.17,0,0,0-.63-3.65,8.65,8.65,0,0,0-1.71-2.84A7.62,7.62,0,0,0,252,56.61a7.32,7.32,0,0,0-8.52,1.82,8.94,8.94,0,0,0-1.68,2.84,10.17,10.17,0,0,0-.63,3.65V65a10.26,10.26,0,0,0,.63,3.66,9,9,0,0,0,1.68,2.83A7.45,7.45,0,0,0,252,73.35a7.62,7.62,0,0,0,2.49-1.82,8.77,8.77,0,0,0,1.71-2.8,10.2,10.2,0,0,0,.63-3.69Z"/><path d="M272,81.06V37.26h9.12v43.8Z"/><path d="M288.7,45.36v-8.1h9.6v8.1Zm.24,35.7V48.9h9.12V81.06Z"/><path d="M328.48,80.13a16.12,16.12,0,0,1-7.8,1.65A16.85,16.85,0,0,1,314,80.46a16.16,16.16,0,0,1-8.79-8.85,16.63,16.63,0,0,1-1.26-6.45V65a16.85,16.85,0,0,1,1.26-6.48,16.66,16.66,0,0,1,3.48-5.34,16.2,16.2,0,0,1,5.31-3.6,17.16,17.16,0,0,1,6.81-1.32,17.45,17.45,0,0,1,7.56,1.44,17,17,0,0,1,5.28,4l-5.58,6a14.9,14.9,0,0,0-3.21-2.58,8.06,8.06,0,0,0-4.11-1,7.07,7.07,0,0,0-3.15.69,7.79,7.79,0,0,0-2.46,1.89,8.59,8.59,0,0,0-1.62,2.79,10,10,0,0,0-.57,3.39V65a10.41,10.41,0,0,0,.57,3.48,8.26,8.26,0,0,0,1.65,2.82,7.84,7.84,0,0,0,2.58,1.89,8,8,0,0,0,3.36.69,8.22,8.22,0,0,0,4-.93,16.87,16.87,0,0,0,3.39-2.49l5.34,5.4A20.52,20.52,0,0,1,328.48,80.13Z"/><path d="M375.46,47.58V81.06h-9.24V47.58H353.44V39.06h34.8v8.52Z"/><path d="M412.12,57.84A9.39,9.39,0,0,0,405,60.6q-2.61,2.76-2.61,8.58V81.06h-9.12V48.9h9.12v6.48a13.38,13.38,0,0,1,3.78-5.28,9.2,9.2,0,0,1,6.48-1.8v9.54Z"/><path d="M436,81.06V77.58a12.67,12.67,0,0,1-4,3,13.23,13.23,0,0,1-5.7,1.11A14.22,14.22,0,0,1,422,81a10.07,10.07,0,0,1-3.51-1.89,9.06,9.06,0,0,1-2.37-3.09,9.75,9.75,0,0,1-.87-4.23V71.7a10.09,10.09,0,0,1,1-4.56A8.66,8.66,0,0,1,418.87,64,12,12,0,0,1,423,62.07a20.42,20.42,0,0,1,5.25-.63,22.47,22.47,0,0,1,4.29.36,26.81,26.81,0,0,1,3.57,1v-.54a5.47,5.47,0,0,0-1.74-4.38,7.71,7.71,0,0,0-5.16-1.5,21.44,21.44,0,0,0-4.65.45,30.93,30.93,0,0,0-4.23,1.29l-2.28-7a35.8,35.8,0,0,1,5.52-1.86,29,29,0,0,1,7-.72q7.5,0,10.92,3.66t3.42,10.2V81.06Zm.18-13a13.94,13.94,0,0,0-2.67-.87,14.36,14.36,0,0,0-3.15-.33A8.14,8.14,0,0,0,425.74,68a3.74,3.74,0,0,0-1.68,3.3v.12a3.37,3.37,0,0,0,1.38,2.88,5.91,5.91,0,0,0,3.6,1,8.07,8.07,0,0,0,5.19-1.56,5,5,0,0,0,1.95-4.08Z"/><path d="M471.88,81.06V63.16a7.19,7.19,0,0,0-1.44-4.87,5.13,5.13,0,0,0-4.08-1.65,5.39,5.39,0,0,0-4.17,1.65,6.9,6.9,0,0,0-1.53,4.87v17.9h-9.12V48.9h9.12v4.6a18.55,18.55,0,0,1,1.71-2,12.05,12.05,0,0,1,2.07-1.66A10.55,10.55,0,0,1,467,48.72a10.71,10.71,0,0,1,3.12-.42q5.22,0,8.07,3.18c1.89,2.12,2.85,5,2.85,8.76V81.06Z"/><path d="M510.42,75.93a8.54,8.54,0,0,1-2.61,3.21A11.76,11.76,0,0,1,503.88,81a17.85,17.85,0,0,1-4.83.63,22.53,22.53,0,0,1-13.8-4.86l3.9-6a21.93,21.93,0,0,0,5.25,2.88,14.21,14.21,0,0,0,4.89,1A5.09,5.09,0,0,0,502.2,74a2,2,0,0,0,.93-1.74v-.12a1.73,1.73,0,0,0-.54-1.26,4.53,4.53,0,0,0-1.47-.93,21.56,21.56,0,0,0-2.13-.75l-2.52-.78a34.09,34.09,0,0,1-3.39-1.17,12.15,12.15,0,0,1-3.09-1.8,8.81,8.81,0,0,1-2.25-2.73,8.28,8.28,0,0,1-.86-4v-.12a9.41,9.41,0,0,1,3.44-7.56,10.72,10.72,0,0,1,3.72-2,15.43,15.43,0,0,1,4.59-.66,20.63,20.63,0,0,1,6.21,1,23,23,0,0,1,5.79,2.73l-3.48,6.3a28.71,28.71,0,0,0-4.68-2.19,12.23,12.23,0,0,0-4-.81,4.18,4.18,0,0,0-2.52.63,1.91,1.91,0,0,0-.84,1.59v.12a1.57,1.57,0,0,0,.54,1.17,6,6,0,0,0,1.44,1,19,19,0,0,0,2.07.87q1.17.42,2.49.84,1.68.54,3.42,1.29a14.07,14.07,0,0,1,3.12,1.83,9.07,9.07,0,0,1,2.28,2.64,7.45,7.45,0,0,1,.9,3.78v.12A10.71,10.71,0,0,1,510.42,75.93Z"/><path d="M549.3,72.15a16.27,16.27,0,0,1-3.24,5.22,13.27,13.27,0,0,1-4.64,3.21,14.53,14.53,0,0,1-5.53,1.08,11.55,11.55,0,0,1-6-1.43,15.77,15.77,0,0,1-4-3.33V90.66h-9.13V48.9h9.13v4.58a14.18,14.18,0,0,1,4-3.72,11.24,11.24,0,0,1,6-1.46,14.29,14.29,0,0,1,5.46,1.08A13.51,13.51,0,0,1,546,52.59a16,16,0,0,1,3.27,5.22,19.12,19.12,0,0,1,1.23,7.11V65A19.12,19.12,0,0,1,549.3,72.15Zm-7.88-7.23a10.17,10.17,0,0,0-.64-3.65,8.65,8.65,0,0,0-1.71-2.84,7.62,7.62,0,0,0-2.49-1.82,7.32,7.32,0,0,0-8.52,1.82,8.94,8.94,0,0,0-1.68,2.84,10.17,10.17,0,0,0-.63,3.65V65a10.26,10.26,0,0,0,.63,3.66,9,9,0,0,0,1.68,2.83,7.45,7.45,0,0,0,8.52,1.82,7.62,7.62,0,0,0,2.49-1.82,8.77,8.77,0,0,0,1.71-2.8,10.2,10.2,0,0,0,.64-3.69Z"/><path d="M588,71.55a16.59,16.59,0,0,1-3.66,5.31,17.35,17.35,0,0,1-5.52,3.6,18,18,0,0,1-7,1.32,18.18,18.18,0,0,1-6.9-1.29A16.85,16.85,0,0,1,559.5,77a16.48,16.48,0,0,1-3.63-5.28,16.12,16.12,0,0,1-1.32-6.51V65a16.12,16.12,0,0,1,1.32-6.51,16.59,16.59,0,0,1,3.66-5.31,17.35,17.35,0,0,1,5.52-3.6,18,18,0,0,1,7-1.32,18.18,18.18,0,0,1,6.9,1.29,16.85,16.85,0,0,1,5.49,3.54A16.48,16.48,0,0,1,588,58.41a16.12,16.12,0,0,1,1.32,6.51V65A16.12,16.12,0,0,1,588,71.55ZM580.35,65a9.52,9.52,0,0,0-.6-3.39,8.52,8.52,0,0,0-4.44-4.77,8.06,8.06,0,0,0-3.42-.72,8.46,8.46,0,0,0-3.51.69,7.75,7.75,0,0,0-2.61,1.89,8.32,8.32,0,0,0-1.65,2.79,10,10,0,0,0-.57,3.39V65a9.52,9.52,0,0,0,.6,3.39,8.6,8.6,0,0,0,4.41,4.77,8,8,0,0,0,3.45.72,8.46,8.46,0,0,0,3.51-.69,7.75,7.75,0,0,0,2.61-1.89,8.32,8.32,0,0,0,1.65-2.79,10,10,0,0,0,.57-3.39Z"/><path d="M613.71,57.84a9.39,9.39,0,0,0-7.17,2.76q-2.61,2.76-2.61,8.58V81.06h-9.12V48.9h9.12v6.48a13.38,13.38,0,0,1,3.78-5.28,9.2,9.2,0,0,1,6.48-1.8v9.54Z"/><path d="M633.63,81.09a14.33,14.33,0,0,1-4,.51,15,15,0,0,1-3.81-.45,6.79,6.79,0,0,1-2.94-1.59,7.64,7.64,0,0,1-1.92-3,13.34,13.34,0,0,1-.69-4.65V56.7h-3.84V48.9h3.84V40.68h9.12V48.9h7.56v7.8h-7.56V70.44q0,3.12,2.94,3.12a9.29,9.29,0,0,0,4.5-1.14v7.32A14.22,14.22,0,0,1,633.63,81.09Z"/><path d="M675.39,44.73a10.14,10.14,0,0,0-2.16-.21q-3.3,0-3.3,3.48v1.26h7.38V56.7h-7.26V81.06h-9.12V56.7h-3.78V49.2h3.78v-2q0-5.34,2.55-7.83t7.41-2.49a24.25,24.25,0,0,1,3.69.24,17.32,17.32,0,0,1,2.79.66V45.3A16.65,16.65,0,0,0,675.39,44.73Z"/><path d="M713.07,71.55a16.59,16.59,0,0,1-3.66,5.31,17.35,17.35,0,0,1-5.52,3.6,18,18,0,0,1-7,1.32,18.18,18.18,0,0,1-6.9-1.29A16.85,16.85,0,0,1,684.54,77a16.48,16.48,0,0,1-3.63-5.28,16.12,16.12,0,0,1-1.32-6.51V65a16.12,16.12,0,0,1,1.32-6.51,16.59,16.59,0,0,1,3.66-5.31,17.35,17.35,0,0,1,5.52-3.6,18,18,0,0,1,7-1.32,18.18,18.18,0,0,1,6.9,1.29,16.85,16.85,0,0,1,5.49,3.54,16.48,16.48,0,0,1,3.63,5.28,16.12,16.12,0,0,1,1.32,6.51V65A16.12,16.12,0,0,1,713.07,71.55ZM705.39,65a9.52,9.52,0,0,0-.6-3.39,8.52,8.52,0,0,0-4.44-4.77,8.06,8.06,0,0,0-3.42-.72,8.46,8.46,0,0,0-3.51.69,7.75,7.75,0,0,0-2.61,1.89,8.32,8.32,0,0,0-1.65,2.79,10,10,0,0,0-.57,3.39V65a9.52,9.52,0,0,0,.6,3.39,8.6,8.6,0,0,0,4.41,4.77,8,8,0,0,0,3.45.72,8.46,8.46,0,0,0,3.51-.69,7.75,7.75,0,0,0,2.61-1.89,8.32,8.32,0,0,0,1.65-2.79,10,10,0,0,0,.57-3.39Z"/><path d="M738.75,57.84a9.39,9.39,0,0,0-7.17,2.76Q729,63.36,729,69.18V81.06h-9.12V48.9H729v6.48a13.38,13.38,0,0,1,3.78-5.28,9.2,9.2,0,0,1,6.48-1.8v9.54Z"/></g><g class="cls-1"><path d="M176.08,136.06h-7.44V100.9H155.32V94.06H189.4v6.84H176.08Z"/></g><g class="cls-1"><path d="M202.12,136.06H194.8V92.26h7.32v17.09a17.93,17.93,0,0,1,1.71-2.15,10.78,10.78,0,0,1,2.15-1.78,11,11,0,0,1,2.69-1.25,11.3,11.3,0,0,1,3.32-.45q5.38,0,8.32,3.3t2.93,8.88v20.16h-7.32v-18a8.49,8.49,0,0,0-1.75-5.72,6.28,6.28,0,0,0-5-2,6.74,6.74,0,0,0-5.12,2.07,8,8,0,0,0-2,5.77Z"/><path d="M261.61,126.64a16.46,16.46,0,0,1-8.91,8.82,18,18,0,0,1-13.47,0,16.24,16.24,0,0,1-8.85-8.76,16.8,16.8,0,0,1,0-12.84,16.56,16.56,0,0,1,3.54-5.28,16.79,16.79,0,0,1,5.34-3.57,17,17,0,0,1,6.75-1.32,17.35,17.35,0,0,1,6.75,1.29,16.29,16.29,0,0,1,10.11,15.21A16.08,16.08,0,0,1,261.61,126.64Zm-6.75-10.26a10.25,10.25,0,0,0-2-3.27,9.43,9.43,0,0,0-3-2.22A9.39,9.39,0,0,0,239,113.08a9.61,9.61,0,0,0-1.91,3.21,11.74,11.74,0,0,0-.65,3.93,11.11,11.11,0,0,0,.72,4,9.83,9.83,0,0,0,2,3.27,9.65,9.65,0,0,0,3,2.19,9.13,9.13,0,0,0,3.85.81,9.34,9.34,0,0,0,4-.81,9.24,9.24,0,0,0,3-2.19,9.42,9.42,0,0,0,1.9-3.21,11.5,11.5,0,0,0,.66-3.93A10.87,10.87,0,0,0,254.86,116.38Z"/><path d="M276.46,136.06h-7.32V104.38h7.32v7.14a14,14,0,0,1,4.26-5.76,10.21,10.21,0,0,1,7-2v7.68h-.42a11.85,11.85,0,0,0-4.38.78,9.17,9.17,0,0,0-3.42,2.34,10.57,10.57,0,0,0-2.22,3.93,17.57,17.57,0,0,0-.78,5.49Z"/><path d="M300.1,136.06h-7.32V104.38h7.32v5a18.91,18.91,0,0,1,1.7-2.15,11.37,11.37,0,0,1,4.85-3,11.3,11.3,0,0,1,3.32-.45q5.38,0,8.32,3.3t2.93,8.88v20.16H313.9v-18a8.44,8.44,0,0,0-1.76-5.72,6.25,6.25,0,0,0-5-2,6.74,6.74,0,0,0-5.12,2.07,8,8,0,0,0-2,5.77Z"/><path d="M350.56,131.08a8.56,8.56,0,0,1-2.49,3.09,11.17,11.17,0,0,1-3.75,1.86,16.43,16.43,0,0,1-4.62.63,21.33,21.33,0,0,1-6.93-1.2,22.21,22.21,0,0,1-6.51-3.54L329.5,127a21.11,21.11,0,0,0,5.25,2.91,14.74,14.74,0,0,0,5.13,1,6.13,6.13,0,0,0,3.63-.93,2.92,2.92,0,0,0,1.29-2.49v-.12a2.31,2.31,0,0,0-.57-1.56,5.14,5.14,0,0,0-1.56-1.17,13.54,13.54,0,0,0-2.28-.9l-2.67-.81q-1.74-.54-3.51-1.2A12.74,12.74,0,0,1,331,120a8.65,8.65,0,0,1-2.31-2.58,7.41,7.41,0,0,1-.9-3.81v-.12a9.12,9.12,0,0,1,.87-4,9,9,0,0,1,2.4-3.06,10.71,10.71,0,0,1,3.6-1.92,14.43,14.43,0,0,1,4.41-.66,20.16,20.16,0,0,1,6.06,1,21.71,21.71,0,0,1,5.58,2.64l-2.88,5.16a24.23,24.23,0,0,0-4.62-2.19,13.28,13.28,0,0,0-4.32-.81,5.25,5.25,0,0,0-3.27.9,2.76,2.76,0,0,0-1.17,2.28v.12a2.06,2.06,0,0,0,.6,1.47,5.91,5.91,0,0,0,1.59,1.14,17.8,17.8,0,0,0,2.28,1q1.29.45,2.67.87,1.74.54,3.48,1.26a14.58,14.58,0,0,1,3.15,1.77,8.79,8.79,0,0,1,2.31,2.55,7,7,0,0,1,.9,3.66v.12A10,10,0,0,1,350.56,131.08Z"/><path d="M389.23,127.24a15.8,15.8,0,0,1-3.3,5.19,13.74,13.74,0,0,1-4.74,3.21,14.51,14.51,0,0,1-5.49,1.08,11.65,11.65,0,0,1-6.48-1.68,16.69,16.69,0,0,1-4.26-3.9l.06,4.92H357.7V92.26H365v17.4a15.78,15.78,0,0,1,4.31-4.23,11.31,11.31,0,0,1,6.4-1.71,14.24,14.24,0,0,1,5.45,1.08,13.77,13.77,0,0,1,4.7,3.21,16.17,16.17,0,0,1,3.32,5.19,18.31,18.31,0,0,1,1.26,7A18.71,18.71,0,0,1,389.23,127.24ZM382.42,116a9.72,9.72,0,0,0-1.95-3.21,8.65,8.65,0,0,0-6.39-2.76,8.89,8.89,0,0,0-3.54.72,8.63,8.63,0,0,0-2.94,2.07,10.29,10.29,0,0,0-2,3.21,12.14,12.14,0,0,0,0,8.4,10.29,10.29,0,0,0,2,3.21,8.63,8.63,0,0,0,2.94,2.07,8.89,8.89,0,0,0,3.54.72,8.65,8.65,0,0,0,6.39-2.76,9.72,9.72,0,0,0,1.95-3.21,12.79,12.79,0,0,0,0-8.46Z"/><path d="M417.52,104.38h7.32v31.68h-7.32v-5a15.56,15.56,0,0,1-3.89,4,10,10,0,0,1-6,1.67c-3.59,0-6.37-1.1-8.32-3.3s-2.93-5.16-2.93-8.88V104.38h7.32v18a8.39,8.39,0,0,0,1.75,5.71,6.25,6.25,0,0,0,5,2,6.74,6.74,0,0,0,5.12-2.07,8.07,8.07,0,0,0,2-5.77Z"/><path d="M440.14,136.06h-7.32V104.38h7.32v7.14a14,14,0,0,1,4.26-5.76,10.21,10.21,0,0,1,7-2v7.68h-.42a11.85,11.85,0,0,0-4.38.78,9.17,9.17,0,0,0-3.42,2.34,10.57,10.57,0,0,0-2.22,3.93,17.57,17.57,0,0,0-.78,5.49Z"/><path d="M473.38,137a26.86,26.86,0,0,1-2,4.14,10.81,10.81,0,0,1-2.28,2.73,8.17,8.17,0,0,1-2.76,1.53,11.21,11.21,0,0,1-3.42.48,14.65,14.65,0,0,1-4.05-.51,17.71,17.71,0,0,1-3.45-1.43l2.46-5.44a12.31,12.31,0,0,0,2.07.87,7.26,7.26,0,0,0,2.19.33,4.12,4.12,0,0,0,2.58-.78,7.17,7.17,0,0,0,1.92-2.87l-13.2-31.63h7.74l9,23.52,8.22-23.52H486Z"/></g></g></g></g></g></g></svg>