<svg xmlns="http://www.w3.org/2000/svg" viewBox="0 0 1224.03 231.04"><defs><style>.cls-1{fill:#4c26a1;}</style></defs><g id="Layer_2" data-name="Layer 2"><g id="Layer_1-2" data-name="Layer 1"><path class="cls-1" d="M0,36V14.43H211.6V36Z" transform="translate(0 -14.43)"/><path class="cls-1" d="M69.41,219.49H47V78H.22V55.18H69.41Z" transform="translate(0 -14.43)"/><path class="cls-1" d="M165.13,219.47H142.54V55.23H211.6v22.4H165.13Z" transform="translate(0 -14.43)"/><circle class="cls-1" cx="105.99" cy="51.53" r="10.95"/><circle class="cls-1" cx="105.99" cy="194.09" r="10.95"/><circle class="cls-1" cx="105.99" cy="122.83" r="10.95"/><circle class="cls-1" cx="105.99" cy="87.18" r="10.95"/><circle class="cls-1" cx="105.99" cy="158.46" r="10.95"/><path d="M250.73,20.15h39.91c17.16,0,30,12.48,30,29.25s-12.87,29.12-30,29.12H266.2v31.33H250.73ZM266.2,34.71V64h24.18A14.19,14.19,0,0,0,304.81,49.4c0-8.45-6.24-14.69-14.43-14.69Z" transform="translate(0 -14.43)"/><path d="M329,85.8V43.55h14.56v38c0,9.49,6.11,15.86,15.47,15.86,9.88,0,16.51-6.5,16.51-16.12V43.55h14.56V89.7c0,3.77,2.34,6.11,6.11,6.11h1.3v14h-4.29c-8.71,0-14.3-3.38-16.51-9.62-5.07,7.28-12.74,11.18-22.36,11.18C339.13,111.41,329,101.27,329,85.8Z" transform="translate(0 -14.43)"/><path d="M405.82,16.25h14.56V53a29.37,29.37,0,0,1,23.4-11c18.59,0,32.63,14.95,32.63,34.71s-14,34.71-32.63,34.71a29.37,29.37,0,0,1-23.4-11v9.49H405.82ZM461.33,76.7C461.33,65,452.62,56,440.92,56A20.21,20.21,0,0,0,420.38,76.7a20.21,20.21,0,0,0,20.54,20.67C452.62,97.37,461.33,88.4,461.33,76.7Z" transform="translate(0 -14.43)"/><path d="M487.07,91.39V16.25h14.56V88.14c0,4.81,3,7.67,7.8,7.67h4v14h-6.11C494.09,109.85,487.07,103.35,487.07,91.39Z" transform="translate(0 -14.43)"/><path d="M518.91,23.66a9.3,9.3,0,0,1,18.6,0,9.3,9.3,0,0,1-18.6,0Zm2,19.89h14.57v66.3H520.86Z" transform="translate(0 -14.43)"/><path d="M546.34,76.7c0-19.76,15.21-34.71,35.49-34.71,17.29,0,30.95,10.92,33.68,26.52H600C597.69,61.1,590.54,56,581.83,56A20.21,20.21,0,0,0,561.29,76.7a20.21,20.21,0,0,0,20.54,20.67c8.71,0,15.86-5.07,18.2-12.48h15.48c-2.73,15.6-16.39,26.52-33.68,26.52C561.55,111.41,546.34,96.46,546.34,76.7Z" transform="translate(0 -14.43)"/><path d="M674.52,34.71H648.91V20.15h66.56V34.71H690v75.14H674.52Z" transform="translate(0 -14.43)"/><path d="M717.42,43.55H732V54.6c5.2-7.54,12.87-12.09,22.23-12.09h2.34v15h-2.34c-14,0-22.23,7.93-22.23,20.15v32.24H717.42Z" transform="translate(0 -14.43)"/><path d="M758.11,76.7C758.11,56.94,772,42,790.74,42A28.92,28.92,0,0,1,814,53V43.55h14.56V89.7c0,3.77,2.21,6.11,6.11,6.11h1.17v14h-4.16c-9.1,0-14.82-3.64-16.77-10.53a29.39,29.39,0,0,1-24.18,12.09C772,111.41,758.11,96.46,758.11,76.7Zm55.9,0C814,65,805.3,56,793.6,56s-20.54,9-20.54,20.67,8.71,20.67,20.54,20.67S814,88.4,814,76.7Z" transform="translate(0 -14.43)"/><path d="M844,43.55H858.6V52c5.33-6.5,13-10,22.36-10,15.73,0,26.26,10.4,26.26,26.13V89.7c0,3.77,2.21,6.11,6,6.11h1.3v14h-4.16c-11.57,0-17.68-5.85-17.68-16.9v-20c0-10.14-6.5-16.9-16.51-16.9-10.53,0-17.55,6.89-17.55,17.16v36.66H844Z" transform="translate(0 -14.43)"/><path d="M917.75,90.35h14.82c0,5.07,4.81,8.45,11.83,8.45,6.5,0,10.79-3,10.79-7.15,0-12-36.4-5.33-36.4-28.86,0-12.87,10.27-20.8,25-20.8C958.83,42,969,50.18,969,62.14H954.15c0-4.55-4.29-7.67-10.53-7.67s-10.14,2.73-10.14,6.76c0,11.57,36.53,5.2,36.53,28.86,0,12.87-10.27,21.32-25.74,21.32C928.28,111.41,917.75,102.83,917.75,90.35Z" transform="translate(0 -14.43)"/><path d="M980.41,43.55H995V53a29.37,29.37,0,0,1,23.4-11C1037,42,1051,56.94,1051,76.7s-14,34.71-32.63,34.71a29.37,29.37,0,0,1-23.4-11v34.19H980.41Zm55.51,33.15c0-11.7-8.71-20.67-20.41-20.67A20.21,20.21,0,0,0,995,76.7a20.21,20.21,0,0,0,20.54,20.67C1027.21,97.37,1035.92,88.4,1035.92,76.7Z" transform="translate(0 -14.43)"/><path d="M1057.76,76.7c0-19.76,15.21-34.71,35.49-34.71s35.49,14.95,35.49,34.71-15.34,34.71-35.49,34.71S1057.76,96.46,1057.76,76.7Zm55.9,0C1113.66,65,1105,56,1093.25,56a20.21,20.21,0,0,0-20.54,20.67,20.21,20.21,0,0,0,20.54,20.67C1105,97.37,1113.66,88.4,1113.66,76.7Z" transform="translate(0 -14.43)"/><path d="M1139.27,43.55h14.56V54.6c5.2-7.54,12.87-12.09,22.23-12.09h2.34v15h-2.34c-14,0-22.23,7.93-22.23,20.15v32.24h-14.56Z" transform="translate(0 -14.43)"/><path d="M1193.09,89.44V56.81h-11.18V43.55h6.76c3.38,0,5.2-1.82,5.2-5.2V25.61h13.78V43.55H1224V56.81h-16.38V87.1c0,5.85,3.64,9.36,9.75,9.36H1224v13.39h-8.71C1200.89,109.85,1193.09,102.57,1193.09,89.44Z" transform="translate(0 -14.43)"/><path d="M256.84,166.81H245.66V153.55h11.18v-6.24c0-14,8.32-21.84,23.79-21.84h8.06v13.39h-6.76c-6.63,0-10.53,3.77-10.53,10.14v4.55h16.38v13.26H271.4v53H256.84Z" transform="translate(0 -14.43)"/><path d="M293.89,186.7c0-19.76,15.21-34.71,35.49-34.71s35.49,14.95,35.49,34.71-15.34,34.71-35.49,34.71S293.89,206.46,293.89,186.7Zm55.9,0c0-11.7-8.71-20.67-20.41-20.67a20.67,20.67,0,0,0,0,41.34C341.08,207.37,349.79,198.4,349.79,186.7Z" transform="translate(0 -14.43)"/><path d="M375.4,153.55H390v11c5.2-7.54,12.87-12.09,22.23-12.09h2.34v15h-2.34c-14,0-22.23,7.93-22.23,20.15v32.24H375.4Z" transform="translate(0 -14.43)"/><path d="M471.21,144.71H445.6V130.15h66.56v14.56H486.68v75.14H471.21Z" transform="translate(0 -14.43)"/><path d="M521.91,126.25h14.56v36.14c5.33-6.76,13-10.4,22.36-10.4,15.73,0,26.26,10.4,26.26,26.13V199.7c0,3.77,2.21,6.11,6,6.11h1.3v14h-4.16c-11.57,0-17.68-5.85-17.68-16.9v-20c0-10.14-6.5-16.9-16.51-16.9-10.53,0-17.55,6.89-17.55,17.16v36.66H521.91Z" transform="translate(0 -14.43)"/><path d="M596,186.7c0-19.76,15.21-34.71,35.5-34.71S667,166.94,667,186.7s-15.34,34.71-35.49,34.71S596,206.46,596,186.7Zm55.91,0c0-11.7-8.71-20.67-20.41-20.67a20.67,20.67,0,0,0,0,41.34C643.2,207.37,651.91,198.4,651.91,186.7Z" transform="translate(0 -14.43)"/><path d="M677.51,153.55h14.56v11c5.2-7.54,12.87-12.09,22.24-12.09h2.34v15h-2.34c-14,0-22.24,7.93-22.24,20.15v32.24H677.51Z" transform="translate(0 -14.43)"/><path d="M724.7,153.55h14.56V162c5.33-6.5,13-10,22.36-10,15.74,0,26.27,10.4,26.27,26.13V199.7c0,3.77,2.21,6.11,6,6.11h1.3v14H791c-11.57,0-17.69-5.85-17.69-16.9v-20c0-10.14-6.5-16.9-16.51-16.9-10.53,0-17.55,6.89-17.55,17.16v36.66H724.7Z" transform="translate(0 -14.43)"/><path d="M798.41,200.35h14.82c0,5.07,4.81,8.45,11.83,8.45,6.5,0,10.79-3,10.79-7.15,0-12-36.4-5.33-36.4-28.86,0-12.87,10.27-20.8,25-20.8,15.08,0,25.22,8.19,25.22,20.15H834.81c0-4.55-4.29-7.67-10.53-7.67s-10.14,2.73-10.14,6.76c0,11.57,36.53,5.2,36.53,28.86,0,12.87-10.27,21.32-25.74,21.32C808.94,221.41,798.41,212.83,798.41,200.35Z" transform="translate(0 -14.43)"/><path d="M861.07,126.25h14.56V163A29.37,29.37,0,0,1,899,152c18.59,0,32.63,14.95,32.63,34.71s-14,34.71-32.63,34.71a29.37,29.37,0,0,1-23.4-11v9.49H861.07Zm55.51,60.45c0-11.7-8.71-20.67-20.41-20.67a20.67,20.67,0,0,0,0,41.34C907.87,207.37,916.58,198.4,916.58,186.7Z" transform="translate(0 -14.43)"/><path d="M941.54,195.8V153.55H956.1v38c0,9.49,6.11,15.86,15.47,15.86,9.88,0,16.51-6.5,16.51-16.12v-37.7h14.56V199.7c0,3.77,2.34,6.11,6.11,6.11h1.3v14h-4.29c-8.71,0-14.3-3.38-16.51-9.62-5.07,7.28-12.74,11.18-22.36,11.18C951.68,221.41,941.54,211.27,941.54,195.8Z" transform="translate(0 -14.43)"/><path d="M1018.11,153.55h14.56v11c5.2-7.54,12.87-12.09,22.23-12.09h2.34v15h-2.34c-14,0-22.23,7.93-22.23,20.15v32.24h-14.56Z" transform="translate(0 -14.43)"/><path d="M1069.85,231.42h1.69c7.93,0,12.35-3,16-10.14l1.17-2.34-27.82-65.39h16.64l19.37,48.36,19.24-48.36h16.25L1100.27,229c-4.94,12-12.87,16.51-28.73,16.51h-1.69Z" transform="translate(0 -14.43)"/></g></g></svg>